<svg width="96" height="74" viewBox="0 0 96 74" fill="none" xmlns="http://www.w3.org/2000/svg">
<path d="M0 9.67205V18.448H11.68L11.696 15.528L11.72 12.608L25.712 12.588L39.696 12.572V28.9841H28.628V24.404L22.772 24.42L16.908 24.444V47.42L22.772 47.444L28.628 47.46V42.8801H39.696V61.3521H11.68V55.5521H0V73.1121H37.24C61.48 73.1121 74.86 73.0801 75.576 73.0321C81.3242 72.6318 86.6839 69.985 90.496 65.6641C93.3818 62.4002 95.2468 58.3614 95.86 54.048C96.052 52.748 96.044 49.3121 95.852 48.0321C95.2378 43.6828 93.3442 39.6144 90.412 36.3441C90.2087 36.1316 90.0215 35.9043 89.852 35.6641C89.852 35.632 90.068 35.344 90.332 35.024C92.8262 31.9326 94.3934 28.1977 94.852 24.252C94.9871 22.7596 95.0005 21.2587 94.892 19.764C94.463 15.6393 92.833 11.7312 90.204 8.52405C88.1579 6.05797 85.582 4.08504 82.668 2.75205C81.1341 2.0564 79.5227 1.54613 77.868 1.23205C75.808 0.872046 77.716 0.892046 37.66 0.892046H0V9.67205ZM74.624 12.648C76.852 12.824 78.456 13.504 79.844 14.868C81.988 16.984 82.764 20.524 81.744 23.64C81.3552 24.8445 80.6767 25.9351 79.768 26.8161C78.6156 27.9317 77.1372 28.6506 75.548 28.868C74.96 28.9681 73.304 28.988 65.028 28.988H55.196V20.828C55.196 16.344 55.216 12.648 55.248 12.628C55.328 12.54 73.524 12.564 74.624 12.648ZM75.692 42.9921C80.004 43.6881 82.92 46.9001 83.196 51.2521C83.424 54.8041 82.212 57.704 79.716 59.604C79.08 60.084 77.716 60.7561 76.952 60.9721C75.552 61.3521 75.584 61.3521 65.044 61.3521H55.196V42.8801H65.104C73.432 42.8801 75.112 42.8921 75.692 42.9921Z" fill="#8D98CD"/>
</svg>
