<svg width="62" height="62" viewBox="0 0 62 62" fill="none" xmlns="http://www.w3.org/2000/svg">
<circle cx="31" cy="31" r="31" fill="#8D98CD"/>
<path d="M40.4583 47.625V44.0417C40.4583 42.1409 39.7033 40.3181 38.3593 38.9741C37.0153 37.6301 35.1924 36.875 33.2917 36.875H18.9583C17.0576 36.875 15.2347 37.6301 13.8907 38.9741C12.5467 40.3181 11.7917 42.1409 11.7917 44.0417V47.625" stroke="#FAFBFF" stroke-width="2" stroke-linecap="round" stroke-linejoin="round"/>
<path d="M26.125 29.7083C30.083 29.7083 33.2917 26.4997 33.2917 22.5417C33.2917 18.5836 30.083 15.375 26.125 15.375C22.167 15.375 18.9583 18.5836 18.9583 22.5417C18.9583 26.4997 22.167 29.7083 26.125 29.7083Z" stroke="#FAFBFF" stroke-width="2" stroke-linecap="round" stroke-linejoin="round"/>
<path d="M51.2083 47.625V44.0417C51.2071 42.4538 50.6786 40.9112 49.7058 39.6562C48.7329 38.4012 47.3708 37.5049 45.8333 37.1079" stroke="#FAFBFF" stroke-width="2" stroke-linecap="round" stroke-linejoin="round"/>
<path d="M38.6667 15.6079C40.2082 16.0026 41.5746 16.8992 42.5504 18.1562C43.5261 19.4133 44.0557 20.9593 44.0557 22.5506C44.0557 24.1419 43.5261 25.688 42.5504 26.945C41.5746 28.2021 40.2082 29.0986 38.6667 29.4933" stroke="#FAFBFF" stroke-width="2" stroke-linecap="round" stroke-linejoin="round"/>
</svg>
