<svg width="96" height="16" viewBox="0 0 96 16" fill="none" xmlns="http://www.w3.org/2000/svg">
<path d="M71.148 5.64003H67.044C67.0398 5.25228 66.9695 4.8681 66.836 4.50403C66.6801 4.09842 66.4336 3.73373 66.1155 3.43775C65.7973 3.14176 65.4158 2.92229 65 2.79603C63.8076 2.41766 62.5236 2.44438 61.348 2.87203C60.8531 3.05256 60.4045 3.34066 60.0344 3.71557C59.6643 4.09047 59.3821 4.54284 59.208 5.04003C58.5572 6.87605 58.5013 8.87039 59.048 10.74C59.1973 11.2696 59.4687 11.7567 59.8403 12.1624C60.212 12.5681 60.6736 12.881 61.188 13.076C62.4416 13.5498 63.8182 13.5878 65.096 13.184C65.4733 13.0627 65.8207 12.8632 66.1157 12.5985C66.4107 12.3338 66.6466 12.01 66.808 11.648C67.024 11.1481 67.133 10.6086 67.128 10.064H71.252C71.2246 10.5365 71.159 11.0061 71.056 11.468C70.696 12.928 69.672 14.156 68.32 14.724C65.464 15.9306 62.2711 16.0782 59.316 15.14C57.408 14.54 55.756 13.168 55.1 11.3C54.7459 10.287 54.566 9.2212 54.568 8.14803C54.568 6.59603 54.84 5.09203 55.584 3.84003C56.352 2.55603 57.528 1.56403 58.952 1.03603C61.9562 -0.0987597 65.2859 -0.0082643 68.224 1.28802C68.9281 1.59228 69.5491 2.06086 70.0349 2.65451C70.5207 3.24816 70.8571 3.94959 71.016 4.70003C71.084 5.00403 71.128 5.32403 71.148 5.64003ZM55.232 15.384H50.88L49.6 12.212H42.264C42.26 12.216 41.004 15.388 40.988 15.384H36.628L43.536 0.612026C43.536 0.620026 48.332 0.612026 48.332 0.612026L55.232 15.384ZM77.164 15.388H73.256C73.256 15.388 73.276 0.616028 73.256 0.616028H77.164V6.52402H85.068C85.068 6.54402 85.06 0.612028 85.068 0.616028H88.984C88.984 0.616028 88.996 15.36 88.984 15.388H85.068V8.88403C85.068 8.90403 77.164 8.88403 77.164 8.88403C77.172 8.91203 77.164 15.38 77.164 15.388ZM3.916 15.388H0C0 15.388 0.02 0.616028 0 0.616028H3.916C3.916 0.616028 3.908 6.56402 3.916 6.52402H11.82C11.82 6.54402 11.804 0.612028 11.82 0.616028H15.732C15.732 0.616028 15.748 15.36 15.732 15.388H11.82V8.88403C11.82 8.90403 3.916 8.88403 3.916 8.88403C3.916 8.91203 3.908 15.384 3.916 15.388ZM34.04 15.384H30.132V3.12403H24.144C24.144 3.12403 24.152 0.620028 24.144 0.616028C24.152 0.620028 40.028 0.616028 40.028 0.616028V3.12403H34.04V15.384ZM18.836 0.616028H22.744V15.384H18.836V0.616028ZM92.084 0.616028H96V15.384H92.084V0.616028ZM45.936 3.12403L43.212 9.84403H48.656L45.936 3.12403Z" fill="#8D98CD"/>
</svg>
