<svg width="96" height="16" viewBox="0 0 96 16" fill="none" xmlns="http://www.w3.org/2000/svg">
<path d="M5.912 0.0639648C6.872 0.0639648 8.272 0.247966 10.096 0.623966V3.52797C8.90352 2.99623 7.6173 2.70662 6.312 2.67596C4.672 2.67596 3.852 3.14796 3.852 4.09196C3.852 4.44396 4.016 4.73197 4.348 4.95597C4.624 5.13597 5.38 5.51596 6.62 6.09996C8.404 6.93196 9.592 7.65197 10.18 8.26397C10.884 8.99197 11.236 9.93196 11.236 11.084C11.236 12.744 10.548 14.004 9.172 14.88C8.056 15.584 6.612 15.936 4.832 15.936C3.332 15.936 1.82 15.752 0.3 15.38V12.36C1.94 12.9 3.396 13.172 4.66 13.172C6.408 13.172 7.28 12.688 7.28 11.724C7.28395 11.5544 7.25215 11.3859 7.18668 11.2295C7.1212 11.0731 7.02353 10.9322 6.9 10.816C6.64 10.556 5.972 10.196 4.9 9.73597C2.976 8.90397 1.72 8.19997 1.14 7.61597C0.763695 7.23089 0.46909 6.77373 0.273877 6.27195C0.0786635 5.77016 -0.0131329 5.23411 0.0039997 4.69596C0.0039997 3.18796 0.552 2.03197 1.656 1.23997C2.744 0.455967 4.16 0.0639648 5.912 0.0639648ZM90.672 0.0639648C91.656 0.0639648 92.932 0.223965 94.496 0.555965L94.856 0.619965V3.52797C93.6608 2.9958 92.3719 2.7062 91.064 2.67596C89.428 2.67596 88.616 3.14796 88.616 4.09196C88.616 4.44396 88.776 4.73197 89.108 4.95597C89.372 5.12797 90.132 5.51196 91.388 6.09996C93.16 6.93196 94.348 7.65197 94.944 8.26397C95.648 8.99197 96 9.93196 96 11.084C96 12.744 95.312 14.004 93.944 14.88C92.824 15.584 91.372 15.936 89.596 15.936C88.092 15.936 86.58 15.752 85.06 15.38V12.36C86.688 12.9 88.14 13.172 89.42 13.172C91.168 13.172 92.04 12.688 92.04 11.724C92.04 11.364 91.92 11.06 91.672 10.816C91.408 10.556 90.74 10.196 89.66 9.73597C87.74 8.91197 86.488 8.20797 85.9 7.61597C85.5223 7.23022 85.2269 6.7718 85.0316 6.2685C84.8364 5.7652 84.7453 5.22749 84.764 4.68797C84.764 3.18397 85.312 2.03197 86.416 1.23997C87.504 0.455967 88.924 0.0639648 90.672 0.0639648ZM39.976 0.327965L43.656 10.104L47.424 0.327965H52.452V15.628H48.58V4.79597L44.292 15.784H41.764L37.556 4.79597V15.628H34.68V0.327965H39.976ZM17.628 0.327965V15.628H13.544V0.327965H17.628ZM31.844 0.327965V3.09597H25.308V6.55196H31V9.07196H25.308V12.704H32.016V15.624H21.376V0.327965H31.844ZM66.672 0.327965V3.09597H60.136V6.55196H65.824V9.07196H60.136V12.704H66.844V15.624H56.2V0.327965H66.672ZM74.264 0.327965L79.284 10.568V0.327965H82.16V15.628H77.56L72.408 5.24797V15.628H69.528V0.327965H74.264Z" fill="#8D98CD"/>
</svg>
