<svg width="96" height="20" viewBox="0 0 96 20" fill="none" xmlns="http://www.w3.org/2000/svg">
<path d="M95.616 5.15189V0.0878906H76.992C73.104 0.0878906 71.352 2.48789 71.064 4.81589V4.88789V0.0878906H65.592V5.15189H71.04H95.616ZM71.04 6.97589L65.568 6.66389V12.4959C65.568 14.3199 64.656 14.8719 61.488 14.8719H57.12C54.504 14.8719 53.4 14.1279 53.4 12.4959V6.11189L47.856 5.70389V12.9519H47.736C47.424 10.8399 46.632 8.39189 41.352 8.03189L24 6.87989C24 9.54389 25.896 11.1279 28.872 11.4399L40.968 12.6639C41.928 12.7359 42.624 13.0239 42.624 13.8159C42.624 14.6799 41.904 14.7759 40.8 14.7759H23.784V6.87989L18.24 6.51989V19.9119H40.824C45.864 19.9119 47.472 17.2959 47.712 15.1119H47.832C48.456 18.5679 51.48 19.9119 56.592 19.9119H62.232C68.208 19.9119 71.04 18.0879 71.04 13.8159V6.97589ZM88.632 8.00789L71.28 6.97589C71.28 9.63989 73.032 11.4159 76.008 11.6559L88.368 12.6159C89.328 12.6879 89.904 12.9279 89.904 13.7199C89.904 14.4639 89.232 14.7519 87.84 14.7519H70.992V19.9119H88.2C93.624 19.9119 96 18.0159 96 13.6959C96 9.80789 93.864 8.34389 88.632 8.00789ZM47.856 0.0878906H53.4V5.15189H47.856V0.0878906ZM15.192 6.27989L9.168 5.67989L0 19.9119H6.744L15.192 6.27989ZM46.848 0.0878906H29.928C25.992 0.0878906 24.264 2.53589 23.856 4.88789V0.0878906H14.472C13.152 0.0878906 12.528 0.49589 11.904 1.40789L9.312 5.15189H46.848V0.0878906Z" fill="#8D98CD"/>
</svg>
