<svg width="97" height="72" viewBox="0 0 97 72" fill="none" xmlns="http://www.w3.org/2000/svg">
<path d="M50.8118 33.3921L50.921 9.56407H56.3368C58.7941 14.8721 60.3704 21.8881 61.6071 33.3921H50.8118ZM42.1586 71.0721H51.1392L51.2402 42.0641H62.0032C62.8479 47.1841 63.054 62.9881 63.1066 71.0721H71.8164C72.6409 35.2601 70.0865 15.0161 63.0298 0.924072H41.3382L42.1586 71.0721ZM78.0203 71.0721H87.4051L89.3976 9.76407H97L96.9434 0.924072H70.5756V9.77607H78.2386L78.0203 71.0721ZM36.181 0.932073H25.0987L26.287 71.0801H35.987L36.181 0.932073ZM11.1227 41.9881H19.0039V32.9201H11.1227L11.151 10.0961H21.437L21.3804 0.928073H0L1.93192 71.0761H11.3288L11.1227 41.9881Z" fill="#8D98CD"/>
</svg>
