<svg width="74" height="96" viewBox="0 0 74 96" fill="none" xmlns="http://www.w3.org/2000/svg">
<path d="M42.452 14.652H28.844V42.112C27.204 42.896 25.416 43.584 23.48 44.156C22.4582 44.4505 21.4222 44.6935 20.376 44.884V15.872C20.376 15.872 20.616 11.708 18.3 10.3V9.78H40.036C41.012 10.968 41.888 12.568 42.452 14.652ZM46.284 52.216C56.144 47.488 60.892 39.168 60.98 29.632C61.04 23.144 58.752 19.16 56.192 17.04C56.0407 16.9153 55.8846 16.7965 55.724 16.684C55.2021 14.4266 54.3787 12.2497 53.276 10.212C53.748 10.28 54.184 10.356 54.572 10.44C61.724 11.96 67.472 16.184 70.192 24.336C72.408 30.984 71.332 39.232 66.576 45.844C65.452 47.408 62.456 50.748 59.016 53.212C58.392 53.66 58.016 53.908 57.36 54.32C61.668 61.224 63.792 65.188 66.54 72.72C68.94 79.296 70.76 88.04 71.008 90.096C71.608 94.988 73.068 95.376 73.404 95.476V96H56.224V95.48C56.752 95.2 61.396 93.296 61.42 86.012C61.444 80.664 60.14 74.78 57.764 68.172C56.3189 64.2889 54.6124 60.5083 52.656 56.856L52.6 56.772C51.4621 57.2644 50.2976 57.693 49.112 58.056C48.22 55.992 47.312 54.124 46.284 52.22V52.216ZM28.844 51.64V56.104C30.144 56.048 34.204 55.72 37.86 55.008C38.688 56.88 39.408 58.656 39.904 60.036L39.972 60.228C38.3375 60.488 36.697 60.7094 35.052 60.892C32.9871 61.1152 30.9172 61.2899 28.844 61.416V90.256C28.844 90.892 28.992 94.288 31.204 95.48V96H18.016V95.48C20.168 94.348 20.376 90.892 20.376 90.26V53.18C23.2269 52.8275 26.0555 52.3134 28.848 51.64H28.844ZM30.672 5L28.824 4.972H11.648V47.272C13.352 47.196 19.7 46.664 23.856 45.432C37.716 41.332 44.336 31.644 44.44 20.26C44.5 13.64 42.168 9.572 39.552 7.412C37.924 6.064 35.768 5.428 34.2 5.196C33.32 5.02 31.36 4.996 30.672 4.996V5ZM3.00801 82.228V6.216C3.00801 6.216 3.25601 1.968 0.888005 0.532V0H30.272C32.724 0.004 35.932 0.252 37.9 0.68C45.196 2.228 51.064 6.536 53.84 14.856C56.1 21.64 55.004 30.056 50.152 36.804C49.004 38.404 45.952 41.804 42.432 44.324C41.8831 44.7189 41.3201 45.0938 40.744 45.448C45.144 52.496 47.308 56.54 50.116 64.228C52.564 70.936 54.42 79.864 54.676 81.956C55.28 86.948 56.776 87.452 57.116 87.556V88.084H39.588L39.584 87.552C40.128 87.264 44.864 85.22 44.888 77.784C44.916 72.332 43.584 66.324 41.16 59.584C39.6833 55.621 37.9393 51.7628 35.94 48.036L35.884 47.948C33.556 49.008 28.636 50.444 25.444 51.048C23.16 51.48 20.844 51.836 17.984 52.156C15.492 52.436 13.076 52.6 11.648 52.692V82.228C11.648 82.872 11.8 86.34 14.06 87.556V88.084H0.600006V87.556C2.79601 86.396 3.01201 82.876 3.01201 82.228H3.00801Z" fill="#8D98CD"/>
</svg>
